<?xml version="1.0" encoding="utf-8"?>
<!-- Generator: Adobe Illustrator 19.0.0, SVG Export Plug-In . SVG Version: 6.00 Build 0)  -->
<svg version="1.1" id="Capa_1" xmlns="http://www.w3.org/2000/svg" xmlns:xlink="http://www.w3.org/1999/xlink" x="0px" y="0px"
	 viewBox="-209 283.9 176 274" style="enable-background:new -209 283.9 176 274;" xml:space="preserve">
<style type="text/css">
	.st0{fill:url(#SVGID_1_);}
	.st1{fill:#FCCA00;}
	.st2{fill:url(#SVGID_2_);}
	.st3{fill:url(#SVGID_3_);}
	.st4{fill:#054993;}
	.st5{fill:none;}
</style>
<g>
	<g>
		<g>
			<g>
				
					<linearGradient id="SVGID_1_" gradientUnits="userSpaceOnUse" x1="1489.9331" y1="-1269.3499" x2="1651.1306" y2="-1055.4331" gradientTransform="matrix(1 0 0 1 -1692 1569.9137)">
					<stop  offset="0" style="stop-color:#BBBBBA"/>
					<stop  offset="0.3125" style="stop-color:#E3E4E4"/>
					<stop  offset="0.4531" style="stop-color:#F8F8F8"/>
					<stop  offset="0.6602" style="stop-color:#E3E4E4"/>
					<stop  offset="1" style="stop-color:#D1D1D1"/>
				</linearGradient>
				<path class="st0" d="M-206.1,469.5v-122h21.3v-59.9l51.8,1.2l11.4,10.9l10.7-11.1h52.3v59h21.6v122c0,11.4-2,22.2-6.5,32.7
					c-4.3,10.1-10.5,19.3-18,26.8c-7.8,7.8-17,13.7-27.1,18.3c-10.6,4.3-21.1,6.4-32.8,6.4c-11.4,0-22.3-2.5-32.8-6.8
					c-10.1-4.6-19.2-10.6-27-18c-7.8-7.5-13.7-16.7-18-26.8C-203.8,491.7-206.1,480.9-206.1,469.5z"/>
				<rect x="-157.3" y="505.4" class="st1" width="73.2" height="31.3"/>
				<rect x="-163.1" y="358.6" class="st1" width="79.4" height="45.5"/>
				
					<linearGradient id="SVGID_2_" gradientUnits="userSpaceOnUse" x1="1532.7837" y1="-1154.9645" x2="1605.1257" y2="-1102.4048" gradientTransform="matrix(1 0 0 1 -1692 1569.9137)">
					<stop  offset="0" style="stop-color:#E10D19"/>
					<stop  offset="0.5156" style="stop-color:#F19C76"/>
					<stop  offset="1" style="stop-color:#E10D19"/>
				</linearGradient>
				<path class="st2" d="M-155.2,458.1v-48.6h67.3v48.6c0,4.6-0.8,8.9-2.6,13c-1.7,4-4.2,7.7-7.2,10.7c-3.1,3.1-6.8,5.5-10.8,7.3
					c-4.2,1.7-8.4,2.6-13.1,2.6c-4.6,0-8.9-1-13-2.7c-4-1.8-7.7-4.2-10.7-7.2c-3.1-3-5.5-6.6-7.2-10.7
					C-154.3,467-155.2,462.7-155.2,458.1z"/>
			</g>
			
				<linearGradient id="SVGID_3_" gradientUnits="userSpaceOnUse" x1="-220.6671" y1="334.8122" x2="-22.1014" y2="484.4421" gradientTransform="matrix(1 0 0 1 0 -0.22)">
				<stop  offset="0" style="stop-color:#00A4DF"/>
				<stop  offset="0.3359" style="stop-color:#054993"/>
				<stop  offset="0.8477" style="stop-color:#054993"/>
				<stop  offset="1" style="stop-color:#00A4DF"/>
			</linearGradient>
			<path class="st3" d="M-94,379.8l2.3,22.7h1.5l2.6-22.7v-3.2h-6.4L-94,379.8L-94,379.8z M-95.9,369.5c0.2,0.8,0.3,1.3,0.3,1.3
				c0.5,2.1,2.4,3.7,4.6,3.7c2.7,0,4.9-2.2,4.9-4.9c0-1.2-0.5-2.4-1.2-3.2c0,0.6,0,1.1-0.1,1.3c-0.6,1.6-1.7,1.3-2,1l0.5-0.8
				c0.8-1.4-0.6-3.3-0.9-3.6c-1.7-1.5-1.4-2.5-1.4-3.8c-1.8,1.9-2.6,3.7-3.1,5c-0.5,1.9,0,4,2.1,5.8
				C-94,371.1-95.4,370.3-95.9,369.5z M-115.9,369.5c0.2,0.8,0.4,1.3,0.4,1.3c0.4,2.1,2.4,3.7,4.6,3.7c2.7,0,4.9-2.2,4.9-4.9
				c0-1.2-0.5-2.4-1.2-3.2c0,0.6,0,1.1-0.1,1.3c-0.6,1.6-1.7,1.3-2,1l0.5-0.8c0.8-1.4-0.6-3.3-0.9-3.6c-1.7-1.5-1.4-2.5-1.4-3.8
				c-1.8,1.9-2.6,3.7-3.1,5c-0.5,1.9,0,4,2.1,5.8C-114.1,371.1-115.4,370.3-115.9,369.5z M-114.2,379.8l2.3,22.7h1.5l2.6-22.7v-3.2
				h-6.4V379.8z M-134.2,379.8l2.3,22.7h1.5l2.6-22.7v-3.2h-6.4V379.8z M-136,369.5c0.2,0.8,0.4,1.3,0.4,1.3
				c0.4,2.1,2.3,3.7,4.6,3.7c2.7,0,4.9-2.2,4.9-4.9c0-1.2-0.5-2.4-1.2-3.2c0,0.6,0,1.1-0.1,1.3c-0.6,1.6-1.7,1.3-2,1l0.5-0.8
				c0.8-1.4-0.6-3.3-0.9-3.6c-1.7-1.5-1.4-2.5-1.4-3.8c-1.8,1.9-2.6,3.7-3.1,5c-0.5,1.9,0,4,2.1,5.8
				C-134.2,371.1-135.5,370.3-136,369.5z M-156.1,369.5c0.2,0.8,0.4,1.3,0.4,1.3c0.4,2.1,2.3,3.7,4.6,3.7c2.7,0,4.9-2.2,4.9-4.9
				c0-1.2-0.5-2.4-1.2-3.2c0.1,0.6,0,1.1-0.1,1.3c-0.6,1.6-1.7,1.3-2,1l0.5-0.8c0.8-1.4-0.6-3.3-0.9-3.6c-1.7-1.5-1.4-2.5-1.4-3.8
				c-1.8,1.9-2.6,3.7-3.1,5c-0.5,1.9,0,4,2.1,5.8C-154.3,371.1-155.6,370.3-156.1,369.5z M-154.3,379.8l2.3,22.7h1.5l2.6-22.7v-3.2
				h-6.4V379.8z M-115.1,291.3c3.1-2.6,6.9-4.2,11.5-4.2h45.4c0.8,0,1,0.3,1.5,0.8c0.5,0.3,0.5,0.5,0.8,0.8v0.8v57h19.2l1.3,0.3
				c0.5,0,0.8,0.3,1,0.5c0.8,0.8,1,1.8,1,2.6v118.7c0,11.9-2.3,23.5-6.7,34.8c-4.9,11.1-11,20.6-18.7,28.5
				c-8.2,8.2-17.4,14.8-28,19.3c-10.5,4.7-21.8,7.1-34.4,7.1c-11.8,0-23.1-2.4-33.9-7.1c-10.8-4.5-20-11.1-27.7-19.3
				c-7.9-7.9-14.4-17.4-19-28.5c-4.4-11.9-6.7-23.5-6.7-34.8V349.9c0-0.8,0.3-1.9,0.8-2.6c0.5-0.5,1.3-0.8,2-0.8h19.8v-57v-0.8
				c0-0.3,0.3-0.5,0.5-0.8c0.5-0.5,1-0.8,1.5-0.8h46c4.4,0,8.5,1.6,11.8,4.2c2.3,1.8,4.1,3.9,5.4,6.3
				C-119.2,295.3-117.4,293.2-115.1,291.3z M-117.7,302.9h-5.6c-1.3-3.4-3.1-6.1-5.4-7.9c-2.6-2.1-5.9-3.2-9.2-3.2h-43.6v54.4h43.6
				c3.1,0,6.2,0.5,9,2.1c1.5,0.8,3.3,2.1,4.9,3.4c1.5,2.4,2.8,4,3.3,5c0.5-1.1,1.5-2.6,3.3-5c1.5-1.3,3.1-2.6,4.9-3.4
				c2.8-1.6,5.7-2.1,9-2.1h43.1v-54.4h-43.1c-3.6,0-6.7,1.1-9,3.2C-115.4,297.1-117.2,299.8-117.7,302.9z M-75.4,402.7
				c1,0.3,2.3,0.3,3.3,0.3c3.1,0,5.6-0.8,8.2-2.1c5.4-2.9,11.3-4.5,17.4-4.5c2.8,0,5.4,0.3,8.5,1.1v-46.4
				C-37.9,351-75.9,402.4-75.4,402.7z M-84.4,437.8c1.3,1.3,3.1,2.6,5.1,3.7l0.5,0.3c1.5,0.6,2.3,0.9,3.3,1.1
				c0.9,0.2,2.3,0.3,3.3,0.3c3.1,0,5.6-0.8,8.2-2.4c5.4-2.9,11.3-4.2,17.4-4.2c2.8,0,5.4,0.3,8.5,1.1v-19c-0.5-0.3-1-0.6-1.5-0.8
				c-1.8-1.1-4.1-1.6-6.9-1.6c-3.6,0-6.4,0.8-8.5,2.1c-6.2,2.9-11.8,4.8-17.2,4.8c-5.1,0-9.7-1.3-14.1-3.4v16.4
				C-85.6,436.4-84.4,437.8-84.4,437.8z M-203.6,351v46.2c2.3-0.5,5.1-0.8,7.9-0.8c6.7,0,12.3,1.6,17.7,4.5c2.6,1.3,5.1,2.1,8,2.1
				c2.1,0,4.1-0.3,6.4-1.3L-203.6,351z M-203.6,437.2c2.3-0.5,5.1-0.8,7.9-0.8c6.7,0,12.3,1.3,17.7,4.2c2.3,1.6,4.9,2.4,8,2.4
				c2.1,0,4.6-0.5,6.9-1.6c2.1-1.1,3.8-2.4,5.7-3.7l1.5-1.6v-16.4c-4.4,1.8-9,3.2-14.1,3.2c-5.9,0-11.3-1.9-16.7-4.8
				c-2.3-1.3-5.4-2.1-9-2.1c-2.8,0-5.1,0.5-6.7,1.6l-1.3,1C-203.6,418.7-203.6,437.2-203.6,437.2z M-151.8,459.9
				c0.5,2.9,1.3,6.1,2.6,9.2c1.5,4,3.6,7.4,6.4,10.3c1.5,1.1,2.8,2.4,4.6,3.4c0.3,0.3,0.8,0.5,1.3,0.8c1.3,1.1,2.6,1.8,4.1,2.4
				c3.1,1.3,7.2,2.1,11.8,2.4c4.9-0.3,8.7-1,12.1-2.4c1.3-0.5,2.8-1.3,4.1-2.4c1.3-0.8,2.6-1.6,3.9-2.6c0.5-0.5,1.3-1.1,1.8-1.6
				c2.8-2.9,5.1-6.3,6.7-10.3c0.2-0.4,0.3-0.6,0.5-1.1c1-2.2,1.7-4.2,2.1-7.9V416h-62.1v40.4C-152,457.6-151.8,458.9-151.8,459.9z
				 M-153.3,469.4c-1.5-3.4-2.3-7.4-2.6-11.6c-4.4,2.1-9,5-14.1,5c-5.9,0-11.3-1.6-16.7-4.7c-2.3-1.3-5.1-1.8-9-1.8
				c-2.8,0-5.1,0.5-6.7,1.6l-1.3,0.8V469c0,2.1,0,4.2,0.2,6.3c2.6-0.5,5.1-0.8,7.7-0.8c6.4,0,12.1,1.3,17.7,4.5
				c2.8,1.3,5.4,2.1,8,2.1s5.1-0.5,6.9-1.3c2.3-1,4.1-2.4,5.7-4l2-2.6c1-1.3,1.5-2.1,1.8-2.9L-153.3,469.4z M-186.7,496.6
				c-3.3-1.6-6.4-2.4-9-2.4c-1.3,0-2.6,0-3.8,0.5c0.5,2.4,1.5,4.8,2.6,7.1c4.4,10.8,10.3,19.8,17.7,27.2c0.5,0.5,1,1.1,1.8,1.6
				l26.2-35.1c-1.3,0.8-2.6,1.6-4.1,2.4c-4.6,1.9-9.7,2.9-14.6,2.9C-176.2,500.8-181.8,499.2-186.7,496.6z M-142.1,528.5l9,7.1
				l-3.3-11.3l9-6.9h-11l-3.6-11.1l-3.6,11.1h-11.3l9.2,6.9l-3.6,11.3L-142.1,528.5z M-38.1,475.5c0.3-2.4,0.3-4.5,0.3-6.6v-10
				c-0.8-0.5-1.3-0.8-1.5-1.1c-1.8-1.1-3.8-1.6-6.9-1.6c-3.6,0-6.4,0.5-8.5,1.8c-6.2,3.2-11.8,4.7-17.2,4.7c-5.1,0-9.7-1.1-14.1-3.2
				c0,4.2-0.8,6.3-2.1,10c0.2,1.8,2,4,3.8,6.3l0,0c1.8,1.6,3.6,2.6,5.4,3.7c2.1,0.8,4.4,1.3,6.9,1.3c2.8,0,5.6-0.8,8.2-2.1
				c5.9-2.9,11.8-4.5,17.4-4.5C-43.5,474.4-40.7,474.7-38.1,475.5z M-54.9,496.6c-5.6,2.6-11.3,4.2-17.2,4.2
				c-5.1,0-9.7-1.1-14.4-2.9c-1.3-0.8-2.6-1.3-3.8-2.1l26.4,35.1l1.8-1.8c7.4-7.9,13.6-16.9,17.7-27.2c1.1-2.8,1.8-4.6,2.6-6.9
				c-1.5-0.5-3.1-0.8-4.6-0.8C-48.9,494.2-52,495-54.9,496.6z M-90.9,535.7l-3.3-11.3l9-6.9h-11l-3.6-11.1l-3.6,11.1h-11.3l9.2,6.9
				l-3.6,11.3l9.2-7.1L-90.9,535.7z"/>
			<path class="st4" d="M-101.3,309.5c-2.8,2.1-4.1,4.7-4.1,7.6c0,2.9,1.3,5.5,4.1,7.7c1.5,1,3.3,2.1,5.1,2.6v10.9h-11.7v-3.7h10.3
				v-3.2c-2.3-0.8-4.6-1.8-6.4-3.2c-3.6-3.2-5.4-6.9-5.4-11.1s1.8-7.9,5.4-11.1c3.6-2.9,7.7-4.5,12.6-4.5s9.2,1.6,12.6,4.5
				c3.8,3.2,5.6,6.9,5.6,11.1c0.2,4.2-1.6,7.9-5.6,11.1c-1.5,1.3-3.6,2.4-6.2,3.2v3.2h10.3v3.7h-12.2v-11.1c1.6-0.3,3.3-1.1,5.7-2.4
				c2.8-2.1,3.6-4.7,3.6-7.7c0-2.9-1.3-5.3-3.6-7.7c-2.6-2.1-6.1-3.4-10.3-3.4C-95.4,306.1-98.7,307.4-101.3,309.5z"/>
			<path class="st4" d="M-134.3,338.8l-6.4-12.9h-18.5l-6.4,12.9h-4.6l19.8-38.8h1l19.5,38.8H-134.3z M-142.8,321.9l-6.9-14.3
				l-7.4,14.3H-142.8z"/>
			<path class="st1" d="M-123.1,442.8v-10.3h2.1h2.3v10.3c0.8,0,1.5,0.3,2.3,0.8l5.1-9c1.3,0.5,2.6,1.3,3.6,2.4l-4.9,8.7
				c0.3,0.3,0.5,0.5,1,0.8c0.3,0.3,0.5,0.5,0.8,1.1l8.5-5.3c0.8,1.3,1.5,2.6,2.1,4l-8.5,5c0.3,0.8,0.3,1.6,0.5,2.4h10v4.2h-10
				c-0.3,0.8-0.3,1.6-0.5,2.4l8.5,5.3c-0.5,1.3-1.3,2.6-2.1,4l-8.5-5.3c-0.3,0.5-0.5,0.8-0.8,1.1c-0.5,0.3-0.8,0.5-1,0.8l4.9,8.7
				c-1,1.1-2.3,1.6-3.6,2.4l-5.1-8.7c-0.8,0.3-1.5,0.5-2.3,0.5v10l-2.3,0.3l-2.1-0.3v-10c-0.8,0-1.5-0.3-2.3-0.5l-5.1,8.7
				c-1.3-0.8-2.6-1.3-3.6-2.4l4.9-8.4c-0.3-0.5-0.5-0.8-1-1.1c-0.3-0.3-0.5-0.5-0.5-0.8l-8.7,4.8c-0.8-1.1-1.5-2.4-2.1-3.7l8.7-5
				c-0.5-0.8-0.5-1.6-0.8-2.6h-10v-4.2h10c0.2-0.8,0.2-1.6,0.5-2.4l-8.5-5c0.5-1.3,1.3-2.6,2.1-4l8.5,5.3c0.3-0.5,0.5-0.8,0.8-1.1
				c0.5-0.3,0.8-0.8,1.3-1.1l-5.1-8.4c1-1.1,2.3-1.9,3.6-2.4l5.1,9C-124.6,443-123.8,442.8-123.1,442.8z"/>
		</g>
	</g>
</g>
<polyline id="_x3C_Sector_x3E_" class="st5" points="194,503.8 370,503.8 370,777.8 194,777.8 194,503.8 "/>
</svg>
